# xmcd CD database file
#
# Track frame offsets:
#	183
#	10210
#	25048
#	34363
#	47575
#	60365
#	77725
#	92955
#	103223
#	121188
#	130760
#	143378
#	155538
#	173388
#
# Disc length: 2456 seconds
#
# Revision: 0
# Processed by: cddbd v1.4PL0 Copyright (c) Steve Scherf et al.
# Submitted via: CDex 1.50
#
DISCID=a409960e
DTITLE=Paberky Marko Cermaka - Od Kentucky k Sacramentu
DYEAR=1993
DGENRE=Country
TTITLE0=Danio
TTITLE1=Volam
TTITLE2=Cesta do Richmondu
TTITLE3=Nemam nic proti krumpaci a lopate
TTITLE4=Kde slunce chodi spat
TTITLE5=Michigan
TTITLE6=Alabama
TTITLE7=Psi zivot
TTITLE8=Vrcholek sveta
TTITLE9=Erie Canal
TTITLE10=At nepohrbivas
TTITLE11=Hriva
TTITLE12=Protahlej  dlouhej stin
TTITLE13=Toulam se
EXTD=YEAR: 1993
EXTT0=
EXTT1=
EXTT2=
EXTT3=
EXTT4=
EXTT5=
EXTT6=
EXTT7=
EXTT8=
EXTT9=
EXTT10=
EXTT11=
EXTT12=
EXTT13=
PLAYORDER=
